<svg width="16" height="16" xmlns="http://www.w3.org/2000/svg" fill="none">
 <g>
  <title>Layer 1</title>
  <path stroke-width="0.25" stroke="#000000" fill-rule="evenodd" clip-rule="evenodd" d="m8,2.25c-3.22386,0 -5.75,2.52614 -5.75,5.75c0,3.2239 2.52614,5.75 5.75,5.75c0.93607,0 1.62673,-0.1753 2.0744,-0.3432c0.2244,-0.0841 0.3887,-0.1667 0.493,-0.2254c0.0521,-0.0293 0.0893,-0.0527 0.1114,-0.0672c0.0111,-0.0073 0.0184,-0.0123 0.0219,-0.0148c0.0018,-0.0012 0.0026,-0.0018 0.0025,-0.0018l-0.0009,0.0007l-0.001,0.0007l-0.0006,0.0005l-0.0003,0.0002c-0.0002,0.0002 -0.0004,0.0003 0.2996,0.4003c0.3,0.4 0.2998,0.4001 0.2996,0.4003l-0.0004,0.0003l-0.0009,0.0007l-0.0021,0.0015l-0.0052,0.0039l-0.0151,0.0107c-0.0121,0.0085 -0.0283,0.0196 -0.0484,0.0329c-0.0404,0.0264 -0.097,0.0617 -0.1699,0.1027c-0.1457,0.0819 -0.3564,0.1868 -0.632,0.2902c-0.55233,0.2071 -1.36167,0.4068 -2.4256,0.4068c-3.77614,0 -6.75,-2.9739 -6.75,-6.75c0,-3.77614 2.97386,-6.75 6.75,-6.75c3.7761,0 6.75,2.97386 6.75,6.75c0,1.90426 -1.2366,3.0823 -2.5042,3.3979c-0.6263,0.156 -1.3003,0.1105 -1.8387,-0.212c-0.3061,-0.1834 -0.54775,-0.4444 -0.70444,-0.7709c-0.94752,0.7288 -2.01912,1.0013 -2.96241,0.7373c-1.21109,-0.3389 -1.99025,-1.49416 -1.99025,-3.1523c0,-1.68557 0.91839,-2.89277 2.17658,-3.20411c0.91588,-0.22663 1.90181,0.04751 2.70052,0.81084c0.00151,-0.0093 0.00302,-0.01853 0.00452,-0.0277c0.03236,-0.1968 0.06469,-0.36752 0.08897,-0.48931c0.01216,-0.06097 0.02235,-0.10988 0.02957,-0.1439l0.00851,-0.03955l0.00236,-0.01078l0.00067,-0.00302l0.0002,-0.0009l0.00007,-0.0003l0.00002,-0.00011l0.48801,0.10884l0.488,0.10887l-0.0001,0.00029l-0.0004,0.00182l-0.0018,0.0083l-0.0073,0.03428c-0.0065,0.03036 -0.0158,0.0752 -0.0271,0.13175c-0.0226,0.11325 -0.0528,0.2726 -0.0829,0.45595c-0.0614,0.37305 -0.1184,0.82106 -0.1184,1.18002l0,0.0061l0,0.00609l0,0.00608l0,0.00608l0,0.00607l0,0.00607l0,0.00607l0,0.00605l0,0.00606l0,0.00604l0,0.00605l0,0.00603l0,0.00604l0,0.00602l0,0.00603l0,0.00601l0,0.00601l0,0.00601l0,0.006l0,0.006l0,0.00599l0,0.00599l0,0.00598l0,0.00597l0,0.00597l0,0.00597l0,0.00596l0,0.00595l0,0.00595l0,0.00595l0,0.00594l0,0.00593l0,0.00593l0,0.00593l0,0.00592l0,0.00591l0,0.00591l0,0.0059l0,0.0059l0,0.0059l0,0.00589l0,0.00588l0,0.00588l0,0.00588l0,0.00586l0,0.00587l0,0.00586l0,0.00585l0,0.00585l0,0.00584l0,0.00584l0,0.00584l0,0.00583l0,0.00582l0,0.00582l0,0.00581l0,0.00581l0,0.00581l0,0.0058l0,0.00579l0,0.00579l0,0.00578l0,0.00578l0,0.00578l0,0.00577l0,0.00576l0,0.00576l0,0.00576l0,0.00575l0,0.00574l0,0.00574l0,0.00574l0,0.00573l0,0.00572l0,0.00572l0,0.00572l0,0.00571l0,0.00571l0,0.0057l0,0.00569l0,0.00569l0,0.00569l0,0.00568l0,0.00568l0,0.00567l0,0.00567l0,0.00566l0,0.00566l0,0.00565l0,0.00565l0,0.00564l0,0.00564l0,0.00563l0,0.00563l0,0.00563l0,0.00562l0,0.00561l0,0.00561l0,0.0056l0,0.00561l0,0.00559l0,0.00559l0,0.00559l0,0.00558l0,0.00557l0,0.00558l0,0.00556l0,0.00557l0,0.00555l0,0.00556l0,0.00554l0,0.00555l0,0.00554l0,0.00553l0,0.00553l0,0.00552l0,0.00552l0,0.00552l0,0.00551l0,0.00551l0,0.0055l0,0.00549l0,0.0055l0,0.00548l0,0.00549l0,0.00547l0,0.00548l0,0.00547l0,0.00546l0,0.00546l0,0.00546l0,0.00545l0,0.00544l0,0.00544l0,0.00544l0,0.00543l0,0.00543l0,0.00542l0,0.00542l0,0.00541l0,0.00541l0,0.00541l0,0.0054l0,0.00539l0,0.0054l0,0.00538l0,0.00538l0,0.00538l0,0.00537l0,0.00537l0,0.00537l0,0.00536l0,0.00535l0,0.00535l0,0.00535l0,0.00534l0,0.00534l0,0.00533l0,0.00533l0,0.00532l0,0.00532l0,0.00531l0,0.00531l0,0.00531l0,0.0053l0,0.0053l0,0.00529l0,0.00529l0,0.00528l0,0.00528l0,0.00528l0,0.00527l0,0.00526l0,0.00526l0,0.00526l0,0.00525l0,0.00525l0,0.00525l0,0.00523l0,0.00524l0,0.00523l0,0.00523l0,0.00522l0,0.00522l0,0.00521l0,0.00521l0,0.0052l0,0.00521l0,0.00519l0,0.00519l0,0.00519l0,0.00518l0,0.00518l0,0.00518l0,0.00517l0,0.00516l0,0.00517l0,0.00515l0,0.00516l0,0.00515l0,0.00514l0,0.00514l0,0.00514l0,0.00513l0,0.00513l0,0.00512l0,0.00512l0,0.00511l0,0.00511l0,0.00511l0,0.0051l0,0.0051l0,0.00509l0,0.00509l0,0.00509l0,0.00508l0,0.00508l0,0.00507l0,0.00507l0,0.00506l0,0.00506l0,0.00506l0,0.00505l0,0.00505l0,0.00504l0,0.00504l0,0.00504l0,0.00503l0,0.00503l0,0.00502l0,0.00502l0,0.00501l0,0.00501l0,0.00501l0,0.005l0,0.005l0,0.005l0,0.00499l0,0.00498l0,0.00498l0,0.00498l0,0.00498l0,0.00497l0,0.00496l0,0.00496l0,0.00496l0,0.00495l0,0.00495l0,0.00495l0,0.00494l0,0.00494l0,0.00493l0,0.00493l0,0.00493l0,0.00492l0,0.00492l0,0.00491l0,0.00491l0,0.0049l0,0.00491l0,0.00489l0,0.0049l0,0.00489l0,0.00488l0,0.00488l0,0.00488l0,0.00488l0,0.00486l0,0.00487l0,0.00486l0,0.00486l0,0.00486l0,0.00485l0,0.00484l0,0.00484l0,0.00484l0,0.00484l0,0.00483l0,0.00482l0,0.00483l0,0.00482l0,0.00481l0,0.00481l0,0.00481l0,0.0048l0,0.0048l0,0.0048l0,0.00479l0,0.00479l0,0.00478l0,0.00479l0,0.00477l0,0.00477l0,0.00477l0,0.00477l0,0.00476l0,0.00476l0,0.00475l0,0.00475l0,0.00475l0,0.00474l0,0.00474l0,0.00474l0,0.00473l0,0.00472l0,0.00473l0,0.00472l0,0.00471l0,0.00472l0,0.00471l0,0.0047l0,0.0047l0,0.0047l0,0.00469l0,0.00469l0,0.00469l0,0.00468l0,0.00468l0,0.00468l0,0.00467l0,0.00467l0,0.00466l0,0.00466l0,0.00466l0,0.00465l0,0.00465l0,0.00465l0,0.00464l0,0.00464l0,0.00463l0,0.00463l0,0.00463l0,0.00463l0,0.00462l0,0.00461l0,0.00462l0,0.00461l0,0.0046l0,0.00461l0,0.00459l0,0.0046l0,0.00459l0,0.00459l0,0.00458l0,0.00459l0,0.00457l0,0.00458l0,0.00457l0,0.00456l0,0.00457l0,0.00456l0,0.00455l0,0.00456l0,0.00455l0,0.00454l0,0.00454l0,0.00454l0,0.00454l0,0.00453l0,0.00453l0,0.00452l0,0.00452l0,0.00452l0,0.00451l0,0.00451l0,0.00451l0,0.00451l0,0.0045l0,0.00449l0,0.0045l0,0.00449l0,0.00448l0,0.00449l0,0.00448l0,0.00447l0,0.00448l0,0.00447l0,0.00446l0,0.00446l0,0.00446l0,0.00446l0,0.00445l0,0.00445l0,0.00445l0,0.00444l0,0.00444l0,0.00443l0,0.00444l0,0.00443l0,0.00442l0,0.00442l0,0.00442l0,0.00442l0,0.00441l0,0.00441l0,0.0044l0,0.00441l0,0.0044l0,0.00439l0,0.00439l0,0.00439l0,0.00439l0,0.00438l0,0.00438l0,0.00438l0,0.00437l0,0.00437l0,0.00437l0,0.00436l0,0.00436l0,0.00435l0,0.00436l0,0.00435l0,0.00434l0,0.00435l0,0.00434l0,0.00434l0,0.00433l0,0.00433l0,0.00433l0,0.00432l0,0.00432l0,0.00432l0,0.00432l0,0.00431l0,0.00431l0,0.0043l0,0.0043l0,0.0043l0,0.0043l0,0.00429l0,0.00429l0,0.00429l0,0.00428l0,0.00428l0,0.00428l0,0.00427l0,0.00427l0,0.00427l0,0.00426l0,0.00426l0,0.00426l0,0.00426l0,0.00425l0,0.00425l0,0.00424l0,0.00425l0,0.00424l0,0.00423l0,0.00424l0,0.00423l0,0.00423l0,0.00422l0,0.00422l0,0.00422l0,0.00422l0,0.00421l0,0.00421l0,0.00421l0,0.0042l0,0.0042l0,0.0042l0,0.00419l0,0.00419l0,0.00419l0,0.00419l0,0.00418l0,0.00418l0,0.00417l0,0.00418l0,0.00417l0,0.00417l0,0.00416l0,0.00416l0,0.00416l0,0.00416l0,0.00415l0,0.00415l0,0.00415l0,0.00414l0,0.00415l0,0.00413l0,0.00414l0,0.00413l0,0.00413l0,0.00413l0,0.00412l0,0.00413l0,0.00411l0,0.00412l0,0.00411l0,0.00411l0,0.00411l0,0.0041l0,0.0041l0,0.0041l0,0.0041l0,0.00409l0,0.00409l0,0.00409l0,0.00408l0,0.00408l0,0.00408l0,0.00408l0,0.00407l0,0.00407l0,0.00407l0,0.00407l0,0.00406l0,0.00406l0,0.00405l0,0.00406c0,0.46479 0.1862,0.72218 0.421,0.86278c0.2585,0.1549 0.647,0.2082 1.0832,0.0996c0.8574,-0.2136 1.7458,-1.01815 1.7458,-2.4276c0,-3.22386 -2.5261,-5.75 -5.75,-5.75zm1.5,4.80319c-0.68325,-1.16297 -1.62717,-1.46129 -2.33322,-1.28658c-0.73126,0.18095 -1.41678,0.91896 -1.41678,2.23339c0,1.34186 0.59584,2.0035 1.25975,2.1893c0.66885,0.1872 1.61122,-0.0456 2.49025,-0.92506l0,-0.00099l0,-0.00419l0,-0.0042l0,-0.0042l0,-0.0042l0,-0.00421l0,-0.00421l0,-0.00421l0,-0.00422l0,-0.00422l0,-0.00422l0,-0.00422l0,-0.00423l0,-0.00423l0,-0.00424l0,-0.00423l0,-0.00424l0,-0.00425l0,-0.00424l0,-0.00425l0,-0.00425l0,-0.00426l0,-0.00426l0,-0.00426l0,-0.00426l0,-0.00427l0,-0.00427l0,-0.00427l0,-0.00428l0,-0.00428l0,-0.00428l0,-0.00429l0,-0.00429l0,-0.00429l0,-0.0043l0,-0.0043l0,-0.0043l0,-0.0043l0,-0.00431l0,-0.00431l0,-0.00432l0,-0.00432l0,-0.00432l0,-0.00432l0,-0.00433l0,-0.00433l0,-0.00433l0,-0.00434l0,-0.00434l0,-0.00435l0,-0.00434l0,-0.00435l0,-0.00436l0,-0.00435l0,-0.00436l0,-0.00436l0,-0.00437l0,-0.00437l0,-0.00437l0,-0.00438l0,-0.00438l0,-0.00438l0,-0.00439l0,-0.00439l0,-0.00439l0,-0.00439l0,-0.0044l0,-0.00441l0,-0.0044l0,-0.00441l0,-0.00441l0,-0.00442l0,-0.00442l0,-0.00442l0,-0.00442l0,-0.00443l0,-0.00444l0,-0.00443l0,-0.00444l0,-0.00444l0,-0.00445l0,-0.00445l0,-0.00445l0,-0.00446l0,-0.00446l0,-0.00446l0,-0.00446l0,-0.00447l0,-0.00448l0,-0.00447l0,-0.00448l0,-0.00449l0,-0.00448l0,-0.00449l0,-0.0045l0,-0.00449l0,-0.0045l0,-0.00451l0,-0.00451l0,-0.00451l0,-0.00451l0,-0.00452l0,-0.00452l0,-0.00452l0,-0.00453l0,-0.00453l0,-0.00454l0,-0.00454l0,-0.00454l0,-0.00454l0,-0.00455l0,-0.00456l0,-0.00455l0,-0.00456l0,-0.00457l0,-0.00456l0,-0.00457l0,-0.00458l0,-0.00457l0,-0.00459l0,-0.00458l0,-0.00459l0,-0.00459l0,-0.0046l0,-0.00459l0,-0.00461l0,-0.0046l0,-0.00461l0,-0.00462l0,-0.00461l0,-0.00462l0,-0.00463l0,-0.00463l0,-0.00463l0,-0.00463l0,-0.00464l0,-0.00464l0,-0.00465l0,-0.00465l0,-0.00465l0,-0.00466l0,-0.00466l0,-0.00466l0,-0.00467l0,-0.00467l0,-0.00468l0,-0.00468l0,-0.00468l0,-0.00469l0,-0.00469l0,-0.00469l0,-0.0047l0,-0.0047l0,-0.0047l0,-0.00471l0,-0.00472l0,-0.00471l0,-0.00472l0,-0.00473l0,-0.00472l0,-0.00473l0,-0.00474l0,-0.00474l0,-0.00474l0,-0.00475l0,-0.00475l0,-0.00475l0,-0.00476l0,-0.00476l0,-0.00477l0,-0.00477l0,-0.00477l0,-0.00477l0,-0.00479l0,-0.00478l0,-0.00479l0,-0.00479l0,-0.0048l0,-0.0048l0,-0.0048l0,-0.00481l0,-0.00481l0,-0.00481l0,-0.00482l0,-0.00483l0,-0.00482l0,-0.00483l0,-0.00484l0,-0.00484l0,-0.00484l0,-0.00484l0,-0.00485l0,-0.00486l0,-0.00486l0,-0.00486l0,-0.00487l0,-0.00486l0,-0.00488l0,-0.00488l0,-0.00488l0,-0.00488l0,-0.00489l0,-0.0049l0,-0.00489l0,-0.00491l0,-0.0049l0,-0.00491l0,-0.00491l0,-0.00492l0,-0.00492l0,-0.00493l0,-0.00493l0,-0.00493l0,-0.00494l0,-0.00494l0,-0.00495l0,-0.00495l0,-0.00495l0,-0.00496l0,-0.00496l0,-0.00496l0,-0.00497l0,-0.00498l0,-0.00498l0,-0.00498l0,-0.00498l0,-0.00499l0,-0.005l0,-0.005l0,-0.005l0,-0.00501l0,-0.00501l0,-0.00501l0,-0.00502l0,-0.00502l0,-0.00503l0,-0.00503l0,-0.00504l0,-0.00504l0,-0.00504l0,-0.00505l0,-0.00505l0,-0.00506l0,-0.00506l0,-0.00506l0,-0.00507l0,-0.00507l0,-0.00508l0,-0.00508l0,-0.00509l0,-0.00509l0,-0.00509l0,-0.0051l0,-0.0051l0,-0.00511l0,-0.00511l0,-0.00511l0,-0.00512l0,-0.00512l0,-0.00513l0,-0.00513l0,-0.00514l0,-0.00514l0,-0.00514l0,-0.00515l0,-0.00516l0,-0.00515l0,-0.00517l0,-0.00516l0,-0.00517l0,-0.00518l0,-0.00518l0,-0.00518l0,-0.00519l0,-0.00519l0,-0.00519l0,-0.00521l0,-0.0052l0,-0.00521l0,-0.00521l0,-0.00522l0,-0.00522l0,-0.00523l0,-0.00523l0,-0.00524l0,-0.00523l0,-0.00525l0,-0.00525l0,-0.00525l0,-0.00526l0,-0.00526l0,-0.00526l0,-0.00527l0,-0.00528l0,-0.00528l0,-0.00528l0,-0.00529l0,-0.00529l0,-0.0053l0,-0.0053l0,-0.00531l0,-0.00531l0,-0.00531l0,-0.00532l0,-0.00532l0,-0.00533l0,-0.00533l0,-0.00534l0,-0.00534l0,-0.00535l0,-0.00535l0,-0.00535l0,-0.00536l0,-0.00537l0,-0.00537l0,-0.00537l0,-0.00538l0,-0.00538l0,-0.00538l0,-0.0054l0,-0.00539l0,-0.0054l0,-0.00541l0,-0.00541l0,-0.00541l0,-0.00542l0,-0.00542l0,-0.00543l0,-0.00543l0,-0.00544l0,-0.00544l0,-0.00544l0,-0.00545l0,-0.00546l0,-0.00546l0,-0.00546l0,-0.00547l0,-0.00548l0,-0.00547l0,-0.00549l0,-0.00548l0,-0.0055l0,-0.00549l0,-0.0055l0,-0.00551l0,-0.00551l0,-0.00552l0,-0.00552l0,-0.00552l0,-0.00553l0,-0.00553l0,-0.00554l0,-0.00555l0,-0.00554l0,-0.00556l0,-0.00555l0,-0.00557l0,-0.00556l0,-0.00558l0,-0.00557l0,-0.00558l0,-0.00559l0,-0.00559l0,-0.00559l0,-0.00561l0,-0.0056l0,-0.00561l0,-0.00561l0,-0.00562l0,-0.00563l0,-0.00563l0,-0.00563l0,-0.00564l0,-0.00564l0,-0.00565l0,-0.00565l0,-0.00566l0,-0.00566l0,-0.00567l0,-0.00567l0,-0.00568l0,-0.00568l0,-0.00569l0,-0.00569l0,-0.00569l0,-0.0057l0,-0.00571l0,-0.00571l0,-0.00572l0,-0.00572l0,-0.00572l0,-0.00573l0,-0.00574l0,-0.00574l0,-0.00574l0,-0.00575l0,-0.00576l0,-0.00576l0,-0.00576l0,-0.00577l0,-0.00578l0,-0.00578l0,-0.00578l0,-0.00579l0,-0.00579l0,-0.0058l0,-0.00581l0,-0.00581l0,-0.00581l0,-0.00582l0,-0.00582l0,-0.00583l0,-0.00584l0,-0.00584l0,-0.00584l0,-0.00585l0,-0.00585l0,-0.00586l0,-0.00587l0,-0.00586l0,-0.00588l0,-0.00588l0,-0.00588l0,-0.00589l0,-0.0059l0,-0.0059l0,-0.0059l0,-0.00591l0,-0.00591l0,-0.00592l0,-0.00593l0,-0.00593l0,-0.00593l0,-0.00594l0,-0.00595l0,-0.00595l0,-0.00595l0,-0.00596l0,-0.00597l0,-0.00597l0,-0.00597l0,-0.00598l0,-0.00098z" fill="#000000" id="svg_1"/>
 </g>

</svg>