<svg width="16" height="16" viewBox="0 0 16 16" fill="none" xmlns="http://www.w3.org/2000/svg">
<path d="M7.75 0.200195C11.9198 0.200195 15.2998 3.58025 15.2998 7.75C15.2998 11.9198 11.9198 15.2998 7.75 15.2998C3.58025 15.2998 0.200195 11.9198 0.200195 7.75C0.200195 3.58025 3.58025 0.200195 7.75 0.200195ZM3.33789 12.4531C4.49166 13.5359 6.04292 14.2002 7.75 14.2002C11.3122 14.2002 14.2002 11.3122 14.2002 7.75C14.2002 6.16431 13.627 4.71306 12.6777 3.58984L3.33789 12.4531ZM7.75 1.2998C4.18776 1.2998 1.2998 4.18776 1.2998 7.75C1.2998 9.20915 1.78459 10.555 2.60156 11.6357L11.8984 2.8125C10.7768 1.86915 9.3302 1.2998 7.75 1.2998Z" fill="white"/>
</svg>
