<svg width="16" height="16" xmlns="http://www.w3.org/2000/svg" fill="none">
 <g>
  <title>Layer 1</title>
  <path stroke="null" d="m10.70129,4.81416l0.74378,0l1.53711,-1.53714l0.54547,0.54543l-1.48756,1.48756l0.04955,0.04959c0.33061,0.85947 0.47937,1.73548 0.44627,2.62802l0,0.59502l1.93383,0l0,0.79337l-2.03294,0c-0.16531,0.89254 -0.47937,1.70245 -0.94218,2.42968l0,0.04955l1.83472,1.88427l-0.54547,0.54547l-1.78507,-1.78507l-0.04955,0.04955c-0.39671,0.46282 -0.85951,0.82643 -1.38842,1.09085c-0.49585,0.23141 -1.02476,0.34716 -1.58672,0.34716c-0.56197,0 -1.1074,-0.1323 -1.63632,-0.39671c-0.49586,-0.26441 -0.94213,-0.62812 -1.3388,-1.09085l-0.09917,-0.04965l-1.73549,1.73552l-0.54543,-0.54547l1.83465,-1.83463l-0.04958,-0.04955c-0.42975,-0.69423 -0.71073,-1.48759 -0.84295,-2.38012l-0.04958,0l-1.98342,0l0,-0.79337l1.88425,0l0,-0.59502c0,-0.89254 0.14876,-1.76854 0.44627,-2.62802l0.04958,-0.04959l-1.48756,-1.48756l0.54544,-0.54543l1.53714,1.53714l0.79337,0l0,-0.54544c0,-0.72725 0.26445,-1.35533 0.79336,-1.88424c0.52891,-0.52891 1.15699,-0.79337 1.88425,-0.79337c0.7603,0 1.40492,0.26446 1.93383,0.79337c0.52891,0.52891 0.79336,1.15699 0.79336,1.88424l0,0.54544zm-4.66102,0l3.86766,0l0,-0.54544c0,-0.52891 -0.19835,-0.97518 -0.59502,-1.3388c-0.36362,-0.39668 -0.80989,-0.59502 -1.3388,-0.59502c-0.52891,0 -0.99171,0.19835 -1.3884,0.59502c-0.36362,0.36362 -0.54543,0.80989 -0.54543,1.3388l0,0.54544zm5.3056,0.79336l-6.74357,0l0,0.04959c-0.26445,0.72725 -0.39669,1.50408 -0.39669,2.3305c0,0.76031 0.09917,1.47104 0.29751,2.13218c0.19835,0.62808 0.47933,1.17353 0.84295,1.63634c0.36362,0.46272 0.77684,0.82643 1.23963,1.09085c0.4628,0.23141 0.9256,0.34707 1.3884,0.34707c0.49585,0 0.95865,-0.11566 1.38839,-0.34707c0.4628,-0.26441 0.87601,-0.62812 1.23963,-1.09085c0.36359,-0.46282 0.64464,-1.00827 0.84295,-1.63634c0.23141,-0.66114 0.34707,-1.37186 0.34707,-2.13218c0,-0.82642 -0.14876,-1.60325 -0.44627,-2.3305l0,-0.04959z" fill="#C5C5C5" id="svg_1"/>
 </g>

</svg>