<svg width="13" height="13" viewBox="0 0 13 13" fill="none" xmlns="http://www.w3.org/2000/svg">
<path d="M1.73333 3.48H1.04L0.0266666 2.41333L0.72 1.72L1.41333 2.41333L2.8 0.973333L3.54667 1.72L1.73333 3.48ZM4.98667 1.98667H12.9867V3H4.98667V1.98667ZM4.98667 4.97333H12.9867V5.98667H4.98667V4.97333ZM12.9867 8.01333H4.98667V8.97333H12.9867V8.01333ZM4.98667 11H12.9867V12.0133H4.98667V11ZM1.04 6.46667H1.73333L3.54667 4.70667L2.8 4.01333L1.41333 5.4L0.72 4.70667L0.0266666 5.45333L1.04 6.46667ZM1.73333 9.50667H1.04L0.0266666 8.44L0.72 7.74667L1.41333 8.44L2.8 7L3.54667 7.69333L1.73333 9.50667ZM1.04 12.4933H1.73333L3.54667 10.7333L2.8 10.04L1.41333 11.4267L0.72 10.7333L0.0266666 11.4267L1.04 12.4933Z" fill="#C5C5C5"/>
</svg>
