<svg width="16" height="16" xmlns="http://www.w3.org/2000/svg" fill="none">
 <g>
  <title>Layer 1</title>
  <path stroke="null" id="svg_1" fill="#C5C5C5" d="m13.85025,8.24642c0.53345,0.48734 0.80018,1.08711 0.80018,1.79937c0,0.67476 -0.22868,1.27456 -0.68584,1.7994c-0.45726,0.48731 -1.02876,0.76849 -1.7146,0.84345c-0.68584,0.03742 -1.31456,-0.13126 -1.88608,-0.50607c-0.53343,-0.41234 -0.87635,-0.95595 -1.02876,-1.63071c-0.76204,-0.03749 -1.50504,-0.24366 -2.22898,-0.61853c-0.83825,-0.41235 -1.54314,-1.01214 -2.11467,-1.79936l0,2.53039c0.41913,0.07497 0.80015,0.26242 1.14306,0.56226c0.34292,0.26242 0.59058,0.58103 0.74299,0.95595c0.19052,0.37481 0.26672,0.73095 0.22862,1.06834c0,0.56226 -0.15242,1.06834 -0.45723,1.51821c-0.26672,0.41234 -0.66679,0.73095 -1.20022,0.95595c-0.49533,0.18736 -1.00971,0.22489 -1.54314,0.11239c-0.53343,-0.11239 -0.99065,-0.35604 -1.37167,-0.73095c-0.38102,-0.37492 -0.62868,-0.80592 -0.74299,-1.29332c-0.0762,-0.52473 -0.01905,-1.0308 0.17146,-1.51821c0.22861,-0.52473 0.55247,-0.93718 0.9716,-1.23702c0.30482,-0.18745 0.62868,-0.31861 0.97161,-0.39358l0,-5.34189c-0.53343,-0.11247 -0.99065,-0.35612 -1.37167,-0.73099c-0.38102,-0.37487 -0.62868,-0.82471 -0.74299,-1.34952c-0.0762,-0.52482 -0.01905,-1.03088 0.17146,-1.51821c0.22861,-0.48734 0.55247,-0.88094 0.9716,-1.18084c0.45723,-0.2999 0.95256,-0.44984 1.48599,-0.44984c0.38102,0 0.74299,0.07498 1.08591,0.22492c0.68584,0.26241 1.16213,0.731 1.42883,1.40576c0.15241,0.33738 0.22861,0.6935 0.22861,1.06837c0,0.52482 -0.15241,1.01214 -0.45723,1.46198c-0.30481,0.41235 -0.70489,0.73099 -1.20022,0.95591c-0.15241,0.07498 -0.30481,0.11247 -0.45722,0.11247c0.1143,1.12461 0.57153,2.08051 1.37167,2.86773c0.80014,0.78722 1.77175,1.23705 2.91481,1.34952c0.0381,-0.14994 0.0762,-0.29989 0.1143,-0.44984c0.22862,-0.48733 0.57154,-0.88093 1.02876,-1.18084c0.53343,-0.33738 1.10492,-0.46858 1.71456,-0.39361c0.6478,0.03749 1.20022,0.28116 1.65748,0.73099l-0.00001,-0.00002zm-8.8016,3.54247c-0.30482,-0.11239 -0.60963,-0.13116 -0.91446,-0.0562c-0.30481,0.03753 -0.59058,0.18745 -0.8573,0.44987c-0.22861,0.22489 -0.38101,0.48731 -0.45722,0.78715c-0.03811,0.29995 0,0.5998 0.1143,0.89975c0.15242,0.29984 0.36197,0.5435 0.62868,0.73095c0.30481,0.18745 0.64773,0.26242 1.02876,0.22489c0.38102,-0.03742 0.70489,-0.18736 0.97161,-0.44978c0.26672,-0.26242 0.41913,-0.58103 0.45722,-0.95595c0.03811,-0.37492 -0.0381,-0.69353 -0.22861,-0.95595c-0.19052,-0.29984 -0.43818,-0.52473 -0.74299,-0.67476l0,0.00001zm-0.62868,-7.47857c0.41913,0 0.76204,-0.11247 1.02876,-0.33738c0.30481,-0.26241 0.49533,-0.58104 0.57153,-0.95592c0.0762,-0.37486 0.01905,-0.71224 -0.17146,-1.01214c-0.19051,-0.33738 -0.45722,-0.56229 -0.80014,-0.67476c-0.30482,-0.14994 -0.60963,-0.18742 -0.91446,-0.11245c-0.30481,0.03748 -0.59058,0.16869 -0.8573,0.39361c-0.22861,0.22492 -0.38101,0.50607 -0.45722,0.84345c-0.03811,0.29989 0,0.59979 0.1143,0.89968c0.15242,0.26241 0.36197,0.48734 0.62868,0.67476c0.26672,0.18743 0.55248,0.28116 0.8573,0.28116l-0.00001,0zm8.68732,6.9163c0.19043,-0.18745 0.32384,-0.41234 0.40003,-0.67476c0.07619,-0.26241 0.07619,-0.50607 0,-0.73099c-0.03814,-0.26241 -0.15238,-0.48734 -0.34292,-0.67476c-0.15238,-0.22493 -0.362,-0.39361 -0.62872,-0.50607c-0.26673,-0.11247 -0.5715,-0.1312 -0.91441,-0.05624c-0.30481,0.03749 -0.57153,0.16869 -0.80015,0.39361c-0.22861,0.22492 -0.38101,0.50607 -0.45722,0.84345c-0.0762,0.29989 -0.05716,0.58104 0.05715,0.84348c0.11432,0.26242 0.26672,0.48731 0.45723,0.67476c0.22861,0.14992 0.47627,0.26242 0.74299,0.33738c0.26673,0.03742 0.53345,0.01866 0.80018,-0.0563c0.26673,-0.07497 0.49531,-0.20612 0.68584,-0.39358z"/>
 </g>

</svg>