<svg width="14" height="13" viewBox="0 0 14 13" fill="none" xmlns="http://www.w3.org/2000/svg">
<path d="M13.5067 0.973333L13.9867 1.50667V11.48L13.5067 12.0133H8.22667L7.37333 12.8667H6.62667L5.77333 12.0133H0.493333L0.0133333 11.48V1.50667L0.493333 0.973333H5.98667L6.36 1.13333L7 1.77333L7.64 1.13333L8.01333 0.973333H13.5067ZM6.52 11.32V2.73333L5.77333 1.98667H1.02667V11H5.98667L6.30667 11.16L6.52 11.32ZM13.0267 11V1.98667H8.22667L7.53333 2.68V11.2667L7.64 11.16L8.01333 11H13.0267ZM5.02667 4.01333V4.97333H1.98667V4.01333H5.02667ZM5.02667 8.01333V8.97333H1.98667V8.01333H5.02667ZM1.98667 5.98667V7H5.02667V5.98667H1.98667ZM12.0133 4.01333V4.97333H9.02667V4.01333H12.0133ZM9.02667 5.98667V7H12.0133V5.98667H9.02667ZM9.02667 8.01333V8.97333H12.0133V8.01333H9.02667Z" fill="#C5C5C5"/>
</svg>
