<svg width="16" height="16" viewBox="0 0 16 16" fill="none" xmlns="http://www.w3.org/2000/svg">
<path d="M4 8C4 8.28444 3.89333 8.53333 3.68 8.74667C3.50222 8.92444 3.27111 9.01333 2.98667 9.01333C2.70222 9.01333 2.47111 8.92444 2.29333 8.74667C2.11556 8.53333 2.02667 8.28444 2.02667 8C2.02667 7.71556 2.11556 7.48444 2.29333 7.30667C2.47111 7.09333 2.70222 6.98667 2.98667 6.98667C3.27111 6.98667 3.50222 7.09333 3.68 7.30667C3.89333 7.48444 4 7.71556 4 8ZM9.01333 8C9.01333 8.28444 8.90667 8.53333 8.69333 8.74667C8.51556 8.92444 8.28444 9.01333 8 9.01333C7.71556 9.01333 7.46667 8.92444 7.25333 8.74667C7.07556 8.53333 6.98667 8.28444 6.98667 8C6.98667 7.71556 7.07556 7.48444 7.25333 7.30667C7.46667 7.09333 7.71556 6.98667 8 6.98667C8.28444 6.98667 8.51556 7.09333 8.69333 7.30667C8.90667 7.48444 9.01333 7.71556 9.01333 8ZM14.0267 8C14.0267 8.28444 13.92 8.53333 13.7067 8.74667C13.5289 8.92444 13.2978 9.01333 13.0133 9.01333C12.7289 9.01333 12.48 8.92444 12.2667 8.74667C12.0889 8.53333 12 8.28444 12 8C12 7.71556 12.0889 7.48444 12.2667 7.30667C12.48 7.09333 12.7289 6.98667 13.0133 6.98667C13.2978 6.98667 13.5289 7.09333 13.7067 7.30667C13.92 7.48444 14.0267 7.71556 14.0267 8Z" fill="#CCCCCC"/>
</svg>
