<svg width="18" height="18" xmlns="http://www.w3.org/2000/svg" fill="none">
 <g>
  <title>Layer 1</title>
  <path stroke="null" id="svg_1" fill="#0972D3" d="m1.64873,0.14743c-0.41316,-0.20672 -0.91088,-0.13837 -1.253,0.17209c-0.34213,0.31046 -0.45836,0.79922 -0.29262,1.23046l2.8588,7.438l-2.8586,7.42609c-0.16596,0.43115 -0.04999,0.91994 0.29194,1.23055c0.34193,0.3106 0.83959,0.37933 1.25285,0.17282l15.66888,-7.82785c0.37933,-0.18947 0.61897,-0.57698 0.61908,-1.00095c0.00011,-0.42398 -0.2393,-0.81162 -0.61841,-1.00133l-15.66893,-7.83988zm3.28133,7.72157l-1.70197,-4.4282l8.85029,4.4282l-7.14833,0zm-0.00043,2.23858l-1.70052,4.41769l8.84267,-4.41769l-7.14215,0z" clip-rule="evenodd" fill-rule="evenodd"/>
 </g>
</svg>