<svg width="16" height="16" xmlns="http://www.w3.org/2000/svg" fill="none">

 <g>
  <title>Layer 1</title>
  <path id="svg_1" fill="#CCCCCC" d="m14.45557,2.93554l0.48,0.53333l0,9.9733l-0.48,0.48l-13.01337,0l-0.48,-0.48l0,-10.98663l0.48,-0.53334l5.01334,0l0.37333,0.16l0.85333,0.85334l6.77337,0zm-0.5334,8.48003l0.0534,-5.49337l-6.3467,0l-0.85333,0.85334l-0.32,0.16l-4.53334,0l0,6.02663l11.99997,0l0,-1.5466zm0,-6.45337l0.0534,-1.01333l-6.5067,0l-0.37333,-0.16l-0.85334,-0.85333l-4.26666,0l0,3.04l4.26666,0l0.85334,-0.85334l0.32,-0.16l6.50663,0z"/>
 </g>
</svg>