<svg width="14" height="13" viewBox="0 0 14 13" fill="none" xmlns="http://www.w3.org/2000/svg">
<path d="M6.52 0.0133333C7.69333 0.0133333 8.77778 0.315556 9.77333 0.92C10.7689 1.48889 11.5511 2.27111 12.12 3.26667C12.7244 4.26222 13.0267 5.34667 13.0267 6.52C13.0267 7.69333 12.7244 8.77778 12.12 9.77333C11.5511 10.7689 10.7689 11.5511 9.77333 12.12C8.77778 12.6889 7.69333 12.9733 6.52 12.9733C5.34667 12.9733 4.26222 12.6889 3.26667 12.12C2.27111 11.5511 1.47111 10.7689 0.866667 9.77333C0.297778 8.77778 0.0133333 7.69333 0.0133333 6.52C0.0133333 5.34667 0.297778 4.26222 0.866667 3.26667C1.47111 2.27111 2.27111 1.48889 3.26667 0.92C4.26222 0.315556 5.34667 0.0133333 6.52 0.0133333ZM6.52 12.0133C7.51556 12.0133 8.42222 11.7644 9.24 11.2667C10.0933 10.7689 10.7689 10.1111 11.2667 9.29333C11.7644 8.44 12.0133 7.51556 12.0133 6.52C12.0133 5.52444 11.7644 4.6 11.2667 3.74667C10.7689 2.89333 10.0933 2.21778 9.24 1.72C8.42222 1.22222 7.51556 0.973333 6.52 0.973333C5.52444 0.973333 4.6 1.22222 3.74667 1.72C2.89333 2.21778 2.21778 2.89333 1.72 3.74667C1.25778 4.6 1.00889 5.52444 0.973333 6.52C0.973333 7.51556 1.22222 8.44 1.72 9.29333C2.21778 10.1111 2.89333 10.7689 3.74667 11.2667C4.6 11.7644 5.52444 12.0133 6.52 12.0133ZM8.06667 3.58667C8.20889 3.72889 8.31556 3.90667 8.38667 4.12C8.45778 4.33333 8.49333 4.56444 8.49333 4.81333C8.49333 5.02667 8.45778 5.24 8.38667 5.45333C8.31556 5.63111 8.22667 5.80889 8.12 5.98667C8.01333 6.16444 7.88889 6.32444 7.74667 6.46667L7.37333 6.89333C7.26667 7.03556 7.17778 7.17778 7.10667 7.32C7.03556 7.46222 7 7.60444 7 7.74667V8.22667H5.82667V7.58667C5.79111 7.40889 5.80889 7.24889 5.88 7.10667C5.95111 6.92889 6.04 6.76889 6.14667 6.62667L6.89333 5.77333C7 5.63111 7.08889 5.48889 7.16 5.34667C7.23111 5.16889 7.26667 5.00889 7.26667 4.86667C7.26667 4.72444 7.24889 4.61778 7.21333 4.54667C7.17778 4.44 7.12444 4.36889 7.05333 4.33333C6.98222 4.26222 6.89333 4.22667 6.78667 4.22667C6.71556 4.19111 6.62667 4.17333 6.52 4.17333C6.41333 4.17333 6.28889 4.20889 6.14667 4.28C6.04 4.31556 5.93333 4.40444 5.82667 4.54667C5.75556 4.65333 5.72 4.79556 5.72 4.97333H4.49333C4.52889 4.72444 4.58222 4.49333 4.65333 4.28C4.72444 4.03111 4.84889 3.81778 5.02667 3.64C5.20444 3.42667 5.41778 3.26667 5.66667 3.16C5.95111 3.05333 6.23556 3 6.52 3C6.84 3 7.12444 3.05333 7.37333 3.16C7.65778 3.26667 7.88889 3.40889 8.06667 3.58667ZM5.82667 8.81333V9.98667H6.94667V8.81333H5.82667Z" fill="#C5C5C5"/>
</svg>
