<svg width="16" height="16" viewBox="0 0 16 16" fill="none" xmlns="http://www.w3.org/2000/svg">
<path fill-rule="evenodd" clip-rule="evenodd" d="M8 14C4.68629 14 2 11.3137 2 8H1C1 11.866 4.13401 15 8 15C11.866 15 15 11.866 15 8C15 4.13401 11.866 1 8 1C5.90929 1 4.03265 1.91657 2.75 3.36981V1H1.75V4.75V5.25H2.25H6V4.25H3.31597C4.41556 2.87831 6.10521 2 8 2C11.3137 2 14 4.68629 14 8C14 11.3137 11.3137 14 8 14Z" fill="white"/>
<path fill-rule="evenodd" clip-rule="evenodd" d="M8 4.5H7V8V8.5V9H11V8H8V4.5Z" fill="white"/>
</svg>
