<svg width="13" height="12" viewBox="0 0 13 12" fill="none" xmlns="http://www.w3.org/2000/svg">
<path fill-rule="evenodd" clip-rule="evenodd" d="M3.5 3.75C3.086 3.75 2.75 3.414 2.75 3C2.75 2.586 3.086 2.25 3.5 2.25C3.914 2.25 4.25 2.586 4.25 3C4.25 3.414 3.914 3.75 3.5 3.75ZM3.5 1.5C2.67162 1.5 2 2.17162 2 3C2 3.82837 2.67162 4.5 3.5 4.5C4.32837 4.5 5 3.82837 5 3C5 2.17162 4.32837 1.5 3.5 1.5ZM11.75 6.423L9.5 4.125L5.77212 7.91663L4.25 6.375L1.25 9.12637V1.5C1.25 1.086 1.586 0.75 2 0.75H11C11.414 0.75 11.75 1.086 11.75 1.5V6.423ZM11.75 10.5C11.75 10.914 11.414 11.25 11 11.25H9.062L6.299 8.45063L9.5 5.24963L11.75 7.49962V10.5ZM2 11.25C1.586 11.25 1.25 10.914 1.25 10.5V10.1479L4.22938 7.47937L8.00038 11.25H2ZM11 0H2C1.17162 0 0.5 0.671625 0.5 1.5V10.5C0.5 11.3284 1.17162 12 2 12H11C11.8284 12 12.5 11.3284 12.5 10.5V1.5C12.5 0.671625 11.8284 0 11 0Z" fill="#CCCCCC"/>
</svg>