<svg width="22" height="22" xmlns="http://www.w3.org/2000/svg" fill="none">

 <g>
  <title>Layer 1</title>
  <g stroke="null" id="svg_3">
   <path stroke="null" id="svg_1" fill="#555555" d="m14.12439,2.64908c-0.41569,-0.40453 -0.97275,-0.63088 -1.55282,-0.63088c-0.57997,0 -1.13704,0.22636 -1.55275,0.63088l-8.28095,8.12092c-0.13858,0.13469 -0.32421,0.2101 -0.51745,0.2101c-0.19324,0 -0.37888,-0.07541 -0.51745,-0.2101c-0.06784,-0.06597 -0.12177,-0.14482 -0.1586,-0.23203c-0.03682,-0.08721 -0.0558,-0.1809 -0.0558,-0.27549c0,-0.09468 0.01898,-0.18838 0.0558,-0.27549c0.03683,-0.08721 0.09076,-0.16616 0.1586,-0.23213l8.28095,-8.12091c0.6927,-0.67411 1.6211,-1.0513 2.58765,-1.0513c0.96666,0 1.89507,0.37718 2.58771,1.0513c0.40084,0.38979 0.70366,0.86896 0.88368,1.39828c0.18002,0.52931 0.23213,1.09374 0.1521,1.64707c0.5607,-0.07975 1.13222,-0.02968 1.67051,0.14632c0.53829,0.17599 1.02889,0.47323 1.43425,0.8688l0.04296,0.04301c0.33919,0.3299 0.60888,0.72445 0.79293,1.16034c0.18415,0.4359 0.27902,0.90427 0.27902,1.37746c0,0.47318 -0.09488,0.94157 -0.27902,1.37748c-0.18405,0.43584 -0.45373,0.83039 -0.79293,1.16034l-7.48952,7.34411c-0.02261,0.02192 -0.04051,0.04827 -0.0528,0.07728c-0.01229,0.029 -0.01858,0.06027 -0.01858,0.09173c0,0.03156 0.00629,0.06273 0.01858,0.09183c0.01229,0.029 0.03018,0.05525 0.0528,0.07728l1.53818,1.50888c0.06784,0.06597 0.12182,0.14492 0.15859,0.23203c0.03687,0.08721 0.05584,0.1809 0.05584,0.27549c0,0.09468 -0.01898,0.18838 -0.05584,0.27549c-0.03677,0.08721 -0.09075,0.16616 -0.15859,0.23213c-0.13853,0.13469 -0.32415,0.21001 -0.51744,0.21001c-0.19329,0 -0.37892,-0.07531 -0.51744,-0.21001l-1.53817,-1.50809c-0.15843,-0.15397 -0.28436,-0.33811 -0.37036,-0.54153c-0.086,-0.20352 -0.13031,-0.42217 -0.13031,-0.643c0,-0.22092 0.04431,-0.43958 0.13031,-0.64309c0.086,-0.20342 0.21193,-0.38757 0.37036,-0.54153l7.48951,-7.345c0.20342,-0.19801 0.36505,-0.43474 0.47546,-0.69626c0.11041,-0.26152 0.16734,-0.54253 0.16734,-0.8264c0,-0.28388 -0.05693,-0.56487 -0.16734,-0.82641c-0.11041,-0.26152 -0.27204,-0.49827 -0.47546,-0.69627l-0.04306,-0.04215c-0.41519,-0.40411 -0.97157,-0.63044 -1.55096,-0.63092c-0.57938,-0.00048 -1.13616,0.22492 -1.55204,0.62834l-6.16981,6.0511l-0.00172,0.00177l-0.08431,0.08347c-0.13862,0.13489 -0.32443,0.2104 -0.51789,0.2104c-0.19345,0 -0.37927,-0.07551 -0.51788,-0.2104c-0.06785,-0.06607 -0.12178,-0.14492 -0.1586,-0.23213c-0.03683,-0.08721 -0.0558,-0.18081 -0.0558,-0.27549c0,-0.09458 0.01897,-0.18828 0.0558,-0.27549c0.03682,-0.08721 0.09075,-0.16606 0.1586,-0.23203l6.25671,-6.13633c0.20293,-0.19813 0.36407,-0.43486 0.47399,-0.69624c0.10992,-0.26138 0.16645,-0.54212 0.16625,-0.82569c-0.00029,-0.28356 -0.05722,-0.56421 -0.16763,-0.8254c-0.11041,-0.26119 -0.27195,-0.49765 -0.47517,-0.69544z" clip-rule="evenodd" fill-rule="evenodd"/>
   <path stroke="null" id="svg_2" fill="#555555" d="m13.08951,4.67932c0.06784,-0.06597 0.12172,-0.14489 0.15859,-0.23207c0.03677,-0.08718 0.05575,-0.18085 0.05575,-0.27549c0,-0.09464 -0.01898,-0.18832 -0.05575,-0.2755c-0.03687,-0.08718 -0.09075,-0.16609 -0.15859,-0.23207c-0.13863,-0.13494 -0.32445,-0.21046 -0.51794,-0.21046c-0.19339,0 -0.37921,0.07552 -0.51784,0.21046l-6.12426,6.00641c-0.33922,0.32985 -0.60886,0.7244 -0.79298,1.16034c-0.18412,0.43584 -0.27899,0.90422 -0.27899,1.37743c0,0.4732 0.09487,0.94159 0.27899,1.37743c0.18412,0.43594 0.45375,0.83049 0.79298,1.16034c0.6928,0.67397 1.62118,1.05101 2.58768,1.05101c0.96651,0 1.89489,-0.37705 2.58769,-1.05101l6.12509,-6.00636c0.06784,-0.06598 0.12182,-0.14489 0.15859,-0.23207c0.03687,-0.08718 0.05584,-0.18085 0.05584,-0.2755c0,-0.09464 -0.01898,-0.18832 -0.05584,-0.2755c-0.03677,-0.08718 -0.09075,-0.16609 -0.15859,-0.23206c-0.13863,-0.13495 -0.32445,-0.21047 -0.51784,-0.21047c-0.19349,0 -0.37931,0.07552 -0.51794,0.21047l-6.12423,6.00635c-0.41566,0.40458 -0.97277,0.6309 -1.55279,0.6309c-0.58001,0 -1.13713,-0.22633 -1.55279,-0.6309c-0.20342,-0.19791 -0.36511,-0.43466 -0.47551,-0.69619c-0.11041,-0.26152 -0.16729,-0.54261 -0.16729,-0.82646c0,-0.28384 0.05688,-0.56483 0.16729,-0.82636c0.1104,-0.26152 0.27209,-0.49827 0.47551,-0.69628l6.12513,-6.00642z" clip-rule="evenodd" fill-rule="evenodd"/>
  </g>
 </g>
</svg>