<svg width="13" height="13" viewBox="0 0 13 13" fill="none" xmlns="http://www.w3.org/2000/svg">
<path fill-rule="evenodd" clip-rule="evenodd" d="M4.18596 1.62554C5.08342 0.0710918 7.07109 -0.461503 8.62554 0.43596L9.36647 0.863734C10.6313 1.59398 11.0647 3.2113 10.3344 4.47612C10.1273 4.83484 9.66861 4.95775 9.30989 4.75064C8.95117 4.54354 8.82826 4.08484 9.03537 3.72612C9.3514 3.17874 9.16385 2.4788 8.61647 2.16277L7.87554 1.735C7.03853 1.25175 5.96825 1.53853 5.485 2.37554L1.735 8.87073C1.25175 9.70775 1.53853 10.778 2.37554 11.2613C3.21255 11.7445 4.28284 11.4577 4.76609 10.6207L7.14109 6.50711C7.27916 6.26797 7.19722 5.96217 6.95807 5.8241C6.71893 5.68603 6.41313 5.76797 6.27506 6.00711L4.74831 8.65153C4.5412 9.01025 4.08251 9.13315 3.72379 8.92605C3.36507 8.71894 3.24216 8.26025 3.44927 7.90153L4.97602 5.25711C5.52831 4.30053 6.75149 3.97278 7.70807 4.52506C8.66466 5.07735 8.99241 6.30053 8.44013 7.25711L6.06512 11.3707C5.16766 12.9252 3.17999 13.4578 1.62554 12.5603C0.0710918 11.6629 -0.461503 9.67518 0.43596 8.12073L4.18596 1.62554Z" fill="white"/>
</svg>
