<svg width="12" height="12" viewBox="0 0 12 12" fill="none" xmlns="http://www.w3.org/2000/svg">
<path d="M2.88889 1H9.11111V1.23523C9.11111 1.57877 9.03467 1.89354 8.88178 2.18038C8.72889 2.46723 8.50844 2.71346 8.22222 2.92077V5.34077C8.49511 5.46346 8.74044 5.61831 8.95822 5.80277C9.176 5.98808 9.36356 6.19538 9.52089 6.42469C9.67822 6.65315 9.79644 6.90277 9.87467 7.171C9.95378 7.44008 9.99556 7.71762 10 8.00446V8.42754H6.44444V11.1538L6 12L5.55556 11.1538V8.42754H2V8.00446C2 7.71762 2.04178 7.44262 2.12444 7.17777C2.208 6.91377 2.32622 6.66415 2.48 6.43062C2.7919 5.95481 3.24295 5.57603 3.77778 5.34077V2.92077C3.50452 2.72387 3.2815 2.47078 3.12533 2.18038C2.97071 1.88701 2.88976 1.56346 2.88889 1.23523V1ZM3.85422 1.65831C3.89156 1.76408 3.93778 1.85462 3.99289 1.92908C4.10074 2.07672 4.24044 2.20077 4.40267 2.29292L4.66667 2.45115V5.92208L4.368 6.02108C4.00267 6.14462 3.69244 6.34515 3.43733 6.62269C3.18311 6.90023 2.96889 7.40792 2.88889 7.76923H9.11111C9.03289 7.40792 8.81778 6.90023 8.56267 6.62269C8.31287 6.34851 7.99201 6.14139 7.632 6.02192L7.33333 5.92123V2.45115L7.59733 2.29885C7.68089 2.25062 7.75467 2.19562 7.81956 2.13385C7.88675 2.06984 7.94912 2.00142 8.00622 1.92908C8.06995 1.84782 8.11727 1.75601 8.14578 1.65831H3.85422Z" fill="#CCCCCC"/>
</svg>
