<svg width="24" height="24" viewBox="0 0 24 24" fill="none" xmlns="http://www.w3.org/2000/svg">
<path d="M21.33 5.11504L13.305 0.480039C12.945 0.270039 12.48 0.165039 12 0.165039C11.52 0.165039 11.055 0.270039 10.695 0.480039L2.66999 5.11504C1.94999 5.52004 1.36499 6.54004 1.36499 7.36504V16.635C1.36499 17.46 1.94999 18.465 2.66999 18.885L10.71 23.52C11.07 23.73 11.535 23.835 12.015 23.835C12.495 23.835 12.96 23.73 13.32 23.52L21.36 18.885C22.08 18.465 22.665 17.46 22.665 16.635V7.36504C22.665 6.54004 22.08 5.52004 21.36 5.11504H21.33ZM12 20.82L4.36499 16.41V7.59004L12 3.18004L19.635 7.59004V14.67L15 12V10.89C15 10.5 14.79 10.155 14.46 9.96004L12.54 8.85004C12.375 8.76004 12.18 8.70004 12 8.70004C11.82 8.70004 11.625 8.74504 11.46 8.85004L9.53999 9.96004C9.20999 10.155 8.99999 10.515 8.99999 10.89V13.11C8.99999 13.5 9.20999 13.845 9.53999 14.04L11.46 15.15C11.625 15.24 11.82 15.3 12 15.3C12.18 15.3 12.375 15.255 12.54 15.15L13.5 14.595L18.135 17.265L12 20.805V20.82Z" fill="#000000"/>
</svg>
