<svg width="13" height="13" viewBox="0 0 13 13" fill="none" xmlns="http://www.w3.org/2000/svg">
<path d="M6.3125 0.0078125C8.3529 0.111224 10.123 1.23343 11.127 2.875V0.75H12.127V5H7.875V4H10.5869C9.81517 2.23484 8.05537 1.00019 6.00391 1C3.24004 1 1 3.23912 1 6C1 8.76088 3.24004 11 6.00391 11C8.5124 10.9998 10.5891 9.15512 10.9512 6.75H11.958C11.5886 9.70944 9.06506 11.9998 6.00391 12L5.69434 11.9922C2.52238 11.8314 0 9.2101 0 6C0 2.68629 2.6883 0 6.00391 0L6.3125 0.0078125Z" fill="#F0F0F0"/>
</svg>
