<svg width="12" height="12" xmlns="http://www.w3.org/2000/svg" fill="none">
 <g>
  <title>Layer 1</title>
  <path stroke="null" d="m2.27111,0.8752l0.74843,0l0,1.6216l0.58211,-0.54053c0.44351,-0.47123 0.97018,-0.77615 1.58001,-0.91474c0.60983,-0.16632 1.21966,-0.16632 1.8295,0c0.60983,0.13859 1.1365,0.44351 1.58002,0.91474c0.47123,0.44351 0.79,0.97018 0.95632,1.58002c0.16632,0.60983 0.16632,1.21966 0,1.82949c-0.16631,0.60983 -0.47123,1.15036 -0.91474,1.6216l-4.07478,4.03323l-0.54053,-0.5406l4.03319,-4.07474c0.36036,-0.33264 0.60983,-0.73457 0.74843,-1.2058c0.1386,-0.49895 0.1386,-0.98405 0,-1.45528c-0.13859,-0.49895 -0.38807,-0.91474 -0.74843,-1.24738c-0.33263,-0.36035 -0.74843,-0.59597 -1.24738,-0.70684c-0.47123,-0.1386 -0.94246,-0.1386 -1.4137,0c-0.47123,0.11087 -0.88702,0.34649 -1.24738,0.70684l-0.74843,0.74843l1.99581,0l0,0.74843l-2.74424,0l-0.37421,-0.37421l0,-2.74424z" fill="#C5C5C5" id="svg_1"/>
 </g>
</svg>