<svg width="15" height="14" viewBox="0 0 15 14" fill="none" xmlns="http://www.w3.org/2000/svg">
<path d="M14.0067 0.0133333L14.4867 0.493333C14.4867 2.16444 14.0778 3.81778 13.26 5.45333C12.5844 6.76889 11.66 8.06667 10.4867 9.34667V13.5067L10.0067 13.9867H7.02L6.64667 13.88L0.673333 7.85333L0.513333 7.48V4.49333L0.993333 4.01333H5.15333C6.43333 2.84 7.73111 1.91556 9.04667 1.24C10.6822 0.422222 12.3356 0.0133333 14.0067 0.0133333ZM1.52667 4.97333V7.32L1.9 7.69333C2.57556 6.73333 3.32222 5.82667 4.14 4.97333H1.52667ZM7.18 12.9733H9.47333V10.36C8.65556 11.1778 7.76667 11.9244 6.80667 12.6L7.18 12.9733ZM6.06 11.8533C6.91333 11.2844 7.74889 10.6267 8.56667 9.88C9.84667 8.63556 10.8956 7.37333 11.7133 6.09333C12.78 4.38667 13.3667 2.69778 13.4733 1.02667C11.8022 1.13333 10.1133 1.72 8.40667 2.78667C7.12667 3.60444 5.86444 4.65333 4.62 5.93333C3.87333 6.75111 3.21556 7.58667 2.64667 8.44L6.06 11.8533ZM3.5 13.9867H0.513333V11H1.52667V12.9733H3.5V13.9867ZM10.2733 6.30667C10.0244 6.66222 9.68667 6.89333 9.26 7C8.86889 7.07111 8.49556 7 8.14 6.78667C7.82 6.53778 7.60667 6.21778 7.5 5.82667C7.42889 5.4 7.5 5.02667 7.71333 4.70667C7.96222 4.35111 8.28222 4.13778 8.67333 4.06667C9.1 3.96 9.47333 4.03111 9.79333 4.28C10.1489 4.49333 10.3622 4.81333 10.4333 5.24C10.54 5.63111 10.4867 5.98667 10.2733 6.30667Z" fill="black"/>
</svg>
