<svg width="12" height="12" xmlns="http://www.w3.org/2000/svg" fill="none">
 <g>
  <title>Layer 1</title>
  <path d="m5.01692,1.82l0.02,0c0.08,-0.02667 0.13333,-0.05333 0.16,-0.08c0.18667,-0.08 0.28,-0.19333 0.28,-0.34l0,-0.7c0,-0.09333 0.02667,-0.16667 0.08,-0.22c0.06667,-0.06667 0.14667,-0.1 0.24,-0.1l0.7,0c0.08,0 0.14667,0.03333 0.2,0.1c0.06667,0.05333 0.1,0.12667 0.1,0.22l0,0.64c0,0.08 0.02667,0.16 0.08,0.24c0.06667,0.06667 0.14667,0.12 0.24,0.16l0.16,0.08l0.16,0.08c0.2,0.10667 0.33333,0.18667 0.4,0.24c0.06667,0.05333 0.13333,0.11333 0.2,0.18c0.13333,0.12 0.26667,0.28667 0.4,0.5c0.05333,0.08 0.1,0.16667 0.14,0.26c0.10667,0.24 0.17333,0.44 0.2,0.6c0.04,0.14667 0.06667,0.3 0.08,0.46c0.01333,0.08 -0.01333,0.15333 -0.08,0.22c-0.05333,0.06667 -0.12667,0.1 -0.22,0.1l-1,0c-0.08,0 -0.15333,-0.02667 -0.22,-0.08c-0.05333,-0.06667 -0.08667,-0.14667 -0.1,-0.24c0,-0.16 -0.04,-0.32667 -0.12,-0.5c-0.06667,-0.13333 -0.17333,-0.25333 -0.32,-0.36c-0.13333,-0.12 -0.26,-0.18667 -0.38,-0.2c-0.10667,-0.02667 -0.27333,-0.03333 -0.5,-0.02c-0.13333,0 -0.27333,0.02667 -0.42,0.08c-0.12,0.02667 -0.22,0.09333 -0.3,0.2c-0.10667,0.16 -0.17333,0.29333 -0.2,0.4c-0.01333,0.10667 -0.02,0.23333 -0.02,0.38l0,0.02c0.01333,0.13333 0.05333,0.26667 0.12,0.4c0.08,0.12 0.2,0.24667 0.36,0.38c0.09333,0.08 0.28,0.17333 0.56,0.28l0.44,0.16c0.30667,0.12 0.53333,0.21333 0.68,0.28c0.18667,0.09333 0.37333,0.2 0.56,0.32c0.42667,0.30667 0.72667,0.6 0.9,0.88c0.12,0.17333 0.20667,0.36667 0.26,0.58c0.04,0.09333 0.06667,0.20667 0.08,0.34c0.01333,0.2 0.01333,0.40667 0,0.62c-0.01333,0.13333 -0.04,0.24667 -0.08,0.34c-0.04,0.16 -0.13333,0.34667 -0.28,0.56c-0.25333,0.36 -0.52,0.62667 -0.8,0.8c-0.14667,0.08 -0.34,0.1667 -0.58,0.26c-0.09333,0.04 -0.16667,0.0667 -0.22,0.08c-0.08,0.0133 -0.15333,0.06 -0.22,0.14c-0.05333,0.0667 -0.08,0.1467 -0.08,0.24l0,0.5c0,0.0933 -0.03333,0.1733 -0.1,0.24c-0.05333,0.0533 -0.12667,0.08 -0.22,0.08l-0.68,0c-0.09333,0 -0.17333,-0.0267 -0.24,-0.08c-0.05333,-0.0667 -0.08,-0.1467 -0.08,-0.24l0,-0.5c0,-0.0933 -0.03333,-0.1667 -0.1,-0.22c-0.05333,-0.0667 -0.12667,-0.1133 -0.22,-0.14l-0.14,-0.04c-0.26667,-0.1067 -0.46,-0.1933 -0.58,-0.26c-0.08,-0.04 -0.17333,-0.1 -0.28,-0.18c-0.22667,-0.17333 -0.38,-0.30667 -0.46,-0.4c-0.08,-0.10667 -0.15333,-0.21333 -0.22,-0.32c-0.10667,-0.21333 -0.18667,-0.41333 -0.24,-0.6c-0.04,-0.18667 -0.06,-0.38 -0.06,-0.58c-0.01333,-0.09333 0.00667,-0.16667 0.06,-0.22c0.06667,-0.06667 0.14667,-0.1 0.24,-0.1l1,0c0.09333,0 0.16667,0.03333 0.22,0.1c0.06667,0.05333 0.10667,0.12667 0.12,0.22l0.02,0.08c0.09333,0.29333 0.21333,0.52 0.36,0.68c0.16,0.17333 0.38,0.29333 0.66,0.36c0.41333,0.01333 0.7,-0.00667 0.86,-0.06c0.25333,-0.09333 0.46,-0.3 0.62,-0.62c0.04,-0.08 0.04667,-0.20667 0.02,-0.38l0,-0.08c0,-0.13333 -0.04,-0.28 -0.12,-0.44c-0.18667,-0.33333 -0.49333,-0.56 -0.92,-0.68l-0.04,-0.04c-0.06667,-0.02667 -0.19333,-0.07333 -0.38,-0.14l-0.22,-0.08l-0.48,-0.2c-0.22667,-0.09333 -0.41333,-0.19333 -0.56,-0.3l-0.3,-0.22c-0.18667,-0.13333 -0.34,-0.27333 -0.46,-0.42l-0.14,-0.18c-0.12,-0.18667 -0.20667,-0.38 -0.26,-0.58c-0.02667,-0.13333 -0.04667,-0.26667 -0.06,-0.4c-0.02667,-0.21333 -0.02667,-0.42 0,-0.62c0.01333,-0.10667 0.03333,-0.2 0.06,-0.28c0.04,-0.17333 0.12667,-0.36667 0.26,-0.58l0.14,-0.18c0.13333,-0.17333 0.28,-0.32 0.44,-0.44c0.10667,-0.08 0.18667,-0.13333 0.24,-0.16c0.18667,-0.12 0.38,-0.21333 0.58,-0.28z" fill="#000000" id="svg_1"/>
 </g>

</svg>