<svg width="24" height="24" xmlns="http://www.w3.org/2000/svg" fill="none">

 <g>
  <title>Layer 1</title>
  <path stroke="null" id="svg_1" fill="#152C70" d="m11.42137,0.49145c0.36423,-0.18213 0.79303,-0.18213 1.15727,0l10.35121,5.17561c0.43837,0.21917 0.71527,0.66721 0.71527,1.1573c0,0.49009 -0.27689,0.93813 -0.71527,1.1573l-2.69119,1.34563l2.74695,1.54516c0.41728,0.23471 0.67076,0.68059 0.65911,1.15921c-0.01165,0.47861 -0.2866,0.91168 -0.71488,1.12582l-2.69106,1.34553l2.74682,1.54505c0.41728,0.23471 0.67076,0.68059 0.65911,1.15921c-0.01165,0.47861 -0.2866,0.91168 -0.71488,1.12582l-10.35121,5.17561c-0.36423,0.18218 -0.79303,0.18218 -1.15727,0l-10.35123,-5.17561c-0.42822,-0.21414 -0.70321,-0.64721 -0.71487,-1.12582c-0.01167,-0.47861 0.24189,-0.92449 0.65917,-1.15921l2.74675,-1.54505l-2.69104,-1.34553c-0.42822,-0.21414 -0.70321,-0.64721 -0.71487,-1.12582c-0.01167,-0.47861 0.24189,-0.92449 0.65917,-1.15921l2.74697,-1.54516l-2.69126,-1.34563c-0.43836,-0.21917 -0.71526,-0.66721 -0.71526,-1.1573c0,-0.49009 0.27689,-0.93813 0.71526,-1.1573l10.35123,-5.17561zm-4.86572,15.40885l-2.1481,1.20825l7.59245,3.79618l7.59248,-3.79618l-2.14814,-1.20825l-4.86572,2.43279c-0.36423,0.18218 -0.79303,0.18218 -1.15727,0l-4.86572,-2.43279zm6.02298,-2.74307l4.86546,-2.43266l2.14839,1.20837l-7.59248,3.79618l-7.59245,-3.79618l2.1483,-1.20837l4.86551,2.43266c0.36423,0.18218 0.79303,0.18218 1.15727,0zm-8.03659,-6.33287l7.45796,3.72902l7.45792,-3.72902l-7.45792,-3.72899l-7.45796,3.72899z" clip-rule="evenodd" fill-rule="evenodd"/>
 </g>
</svg>