<svg xmlns="http://www.w3.org/2000/svg" xmlns:xlink="http://www.w3.org/1999/xlink" fill="#000000" height="800px" width="800px" version="1.1" id="Layer_1" viewBox="0 0 460.893 460.893" xml:space="preserve">
<g>
	<g>
		<g>
			<path d="M420.84,0H160.051c-18.121,0-32.864,14.743-32.864,32.865v76.136c9.398,0,296.519-0.163,296.519-0.163v184.815     c0,1.58-1.285,2.865-2.865,2.865h-57.135v30h57.135c18.122,0,32.865-14.743,32.865-32.865V32.865     C453.705,14.743,438.962,0,420.84,0z M157.186,78.838V32.865c0-1.58,1.285-2.865,2.864-2.865h260.789     c1.58,0,2.865,1.285,2.865,2.865v45.973H157.186z"/>
			<circle cx="183.835" cy="56.556" r="18.1"/>
			<path d="M300.84,134.375c-8.756,0-252.622,0-260.789,0c-18.109,0-32.864,14.717-32.864,32.864v260.789     c0,18.12,14.742,32.865,32.864,32.865H300.84c18.118,0,32.865-14.739,32.865-32.865V167.239     C333.705,149.098,318.952,134.375,300.84,134.375z M37.186,167.239c0-1.579,1.285-2.864,2.864-2.864h260.789     c1.58,0,2.865,1.285,2.865,2.864v45.974H37.186V167.239z M303.706,428.028h-0.001c0,1.58-1.285,2.865-2.865,2.865H40.051     c-1.579,0-2.864-1.285-2.864-2.865V243.213h266.519V428.028z"/>
			<circle cx="64.835" cy="188.931" r="18.1"/>
		</g>
	</g>
</g>
</svg>