<svg width="12" height="12" viewBox="0 0 12 12" fill="none" xmlns="http://www.w3.org/2000/svg">
	<path fill-rule="evenodd" clip-rule="evenodd"
		d="M1.5 0.75C1.08579 0.75 0.75 1.08579 0.75 1.5V6.75C0.75 7.16421 1.08579 7.5 1.5 7.5H3.32552L5.07951 10.4211L5.08087 10.4234C5.38829 10.9313 5.94572 11.25 6.5475 11.25C7.49421 11.25 8.2575 10.4867 8.2575 9.54V8.2875H9.3375C10.802 8.2875 11.8689 6.91336 11.5208 5.49832L11.5202 5.49603L10.7631 2.46003L10.7628 2.45896C10.515 1.45856 9.61591 0.75 8.58 0.75H3.75H1.5ZM2.25 6V2.25H3V6H2.25ZM4.5 6.54213L6.36413 9.64665L6.36455 9.64735C6.40225 9.70906 6.47455 9.75 6.5475 9.75C6.66579 9.75 6.7575 9.65829 6.7575 9.54V7.5375C6.7575 7.12329 7.09329 6.7875 7.5075 6.7875H9.3375C9.82268 6.7875 10.1806 6.33227 10.0645 5.85765L10.0642 5.85669L9.30729 2.82148L9.30692 2.81998C9.22434 2.48594 8.92372 2.25 8.58 2.25H4.5V6.54213Z"
		fill="white" />
</svg>
	