<svg width="12" height="12" viewBox="0 0 12 12" fill="none" xmlns="http://www.w3.org/2000/svg">
	<path fill-rule="evenodd" clip-rule="evenodd"
		d="M6.36455 2.35264L6.36412 2.35335L4.5 5.45787V9.75H8.58C8.92372 9.75 9.22434 9.51406 9.30691 9.18002L10.0642 6.14332L10.0644 6.14248C10.1807 5.66781 9.82271 5.2125 9.3375 5.2125H7.5075C7.09329 5.2125 6.7575 4.87671 6.7575 4.4625V2.46C6.7575 2.34171 6.66579 2.25 6.5475 2.25C6.47455 2.25 6.40226 2.29094 6.36455 2.35264ZM3 9.75V6H2.25V9.75H3ZM3.32552 4.5L5.07951 1.57891L5.08087 1.57664C5.38829 1.06874 5.94573 0.75 6.5475 0.75C7.49422 0.75 8.2575 1.51329 8.2575 2.46V3.7125H9.3375C10.802 3.7125 11.8689 5.08666 11.5208 6.50169L11.5202 6.50399L10.7631 9.53997L10.7629 9.54076C10.5152 10.5413 9.61601 11.25 8.58 11.25H1.5C1.08579 11.25 0.75 10.9142 0.75 10.5V5.25C0.75 4.83579 1.08579 4.5 1.5 4.5H3.32552Z"
		fill="white" />
</svg>
	