<svg width="16" height="16" viewBox="0 0 16 16" fill="none" xmlns="http://www.w3.org/2000/svg">
<path d="M14.7733 3.46667C14.9156 3.92889 14.9867 4.40889 14.9867 4.90667C14.9867 5.40444 14.88 5.88444 14.6667 6.34667C14.4889 6.80889 14.2222 7.23556 13.8667 7.62667C13.5111 7.98222 13.1022 8.26667 12.64 8.48C12.1778 8.65778 11.6978 8.74667 11.2 8.74667C10.7022 8.74667 10.2222 8.64 9.76 8.42667C8.83556 9.38667 7.76889 10.4533 6.56 11.6267C5.28 12.9422 4.26667 13.9378 3.52 14.6133C3.27111 14.8622 2.98667 14.9867 2.66667 14.9867C2.48889 14.9867 2.31111 14.9511 2.13333 14.88C1.99111 14.7733 1.84889 14.6489 1.70667 14.5067C1.42222 14.2578 1.26222 13.9556 1.22667 13.6C1.22667 13.2089 1.33333 12.8711 1.54667 12.5867C3.57333 10.4889 5.61778 8.40889 7.68 6.34667C7.50222 5.88444 7.41333 5.40444 7.41333 4.90667C7.41333 4.37333 7.50222 3.87556 7.68 3.41333C7.89333 2.91556 8.17778 2.48889 8.53333 2.13333C8.88889 1.77778 9.29778 1.51111 9.76 1.33333C10.2222 1.12 10.6844 1.01333 11.1467 1.01333C11.6444 1.01333 12.1244 1.08444 12.5867 1.22667L12.7467 2.02667L10.6667 4.16L11.8933 5.38667L13.9733 3.30667L14.7733 3.46667ZM2.93333 13.92C4.32 12.6044 6.31111 10.6133 8.90667 7.94667C8.76444 7.84 8.64 7.73333 8.53333 7.62667C8.42667 7.48444 8.32 7.34222 8.21333 7.2C5.72444 9.68889 3.73333 11.7156 2.24 13.28C2.20444 13.3511 2.20444 13.44 2.24 13.5467C2.27556 13.6533 2.31111 13.7422 2.34667 13.8133C2.41778 13.8844 2.47111 13.9378 2.50667 13.9733C2.54222 13.9733 2.59556 13.9733 2.66667 13.9733H2.77333C2.84444 13.9733 2.89778 13.9556 2.93333 13.92ZM14.0267 4.85333V4.58667L12.2133 6.4H11.52L9.65333 4.53333V3.84L11.4667 1.97333H11.2C10.8444 1.97333 10.4889 2.04444 10.1333 2.18667C9.77778 2.32889 9.45778 2.54222 9.17333 2.82667C8.92444 3.11111 8.72889 3.43111 8.58667 3.78667C8.37333 4.32 8.32 4.87111 8.42667 5.44C8.53333 6.00889 8.8 6.50667 9.22667 6.93333C9.76 7.46667 10.4178 7.73333 11.2 7.73333C11.9822 7.73333 12.6578 7.46667 13.2267 6.93333C13.7956 6.36444 14.0622 5.67111 14.0267 4.85333ZM3.25333 6.66667L2.82667 6.45333L0.96 3.57333L1.06667 2.93333L1.86667 2.13333L2.45333 2.02667L5.33333 3.94667L5.54667 4.37333L5.49333 6.02667L6.13333 6.72L5.49333 7.41333L4.74667 6.66667H3.25333ZM2.29333 3.04L2.02667 3.36L3.52 5.70667H4.58667V4.58667L2.29333 3.04ZM9.38667 10.0267L12.5333 13.2267C12.5689 13.2622 12.5867 13.3156 12.5867 13.3867C12.6222 13.4222 12.64 13.4756 12.64 13.5467C12.64 13.6178 12.6222 13.6889 12.5867 13.76C12.5867 13.7956 12.5689 13.8489 12.5333 13.92C12.4978 13.9556 12.4267 13.9911 12.32 14.0267C12.2489 14.0622 12.16 14.0622 12.0533 14.0267C11.9822 13.9911 11.9111 13.9378 11.84 13.8667L8.74667 10.6667L8.05333 11.36L11.2 14.56C11.3067 14.7022 11.4489 14.8089 11.6267 14.88C11.9111 14.9867 12.1778 15.0222 12.4267 14.9867C12.7111 14.9156 12.96 14.7733 13.1733 14.56C13.4578 14.2756 13.6 13.9378 13.6 13.5467C13.6 13.1556 13.4578 12.8178 13.1733 12.5333L10.08 9.33333L9.38667 10.0267Z" fill="#D4D7D6"/>
</svg>
