<svg width="15" height="15" xmlns="http://www.w3.org/2000/svg" fill="none">

 <g>
  <title>Layer 1</title>
  <path id="svg_1" fill="#D4D7D6" d="m5.66786,1.35552l0.74667,0.74666l-3.14667,3.09334l1.81334,0c1.45777,0 2.72,0.17778 3.78666,0.53333c1.06667,0.32 1.93778,0.81778 2.61337,1.49333c0.6755,0.67556 1.1555,1.52889 1.44,2.56c0.32,0.99556 0.48,2.1867 0.48,3.5733l0,0.32l-1.0134,0l0,-0.32c0,-2.52441 -0.5333,-4.33774 -1.59997,-5.43996c-0.56889,-0.56889 -1.31555,-0.99556 -2.24,-1.28c-0.92444,-0.28445 -2.08,-0.42667 -3.46666,-0.42667l-1.92,0l3.25333,3.2l-0.74667,0.69333l-4,-4l0,-0.69333l4,-4.05333z"/>
 </g>
</svg>