<svg width="24" height="24" xmlns="http://www.w3.org/2000/svg" fill="none">
 <defs>
  <clipPath id="clip0_1096_21429">
   <rect width="24" height="24" fill="white" y="0.08984" x="0" id="svg_1"/>
  </clipPath>
 </defs>
 <g>
  <title>Layer 1</title>
  <g clip-path="url(#clip0_1096_21429)" id="svg_2" stroke="null">
   <path d="m18.28341,7.35672l-5.34712,-3.0941c-0.24283,-0.14403 -0.5699,-0.21356 -0.89201,-0.21356c-0.32212,0 -0.64423,0.06953 -0.89201,0.21356l-5.34714,3.0941c-0.49061,0.28309 -0.89201,0.97839 -0.89201,1.54457l0,6.18817c0,0.56618 0.40141,1.26148 0.89201,1.54457l5.34714,3.0941c0.24283,0.14403 0.5699,0.21356 0.89201,0.21356c0.32212,0 0.64423,-0.06953 0.89201,-0.21356l5.34712,-3.0941c0.49061,-0.28309 0.89201,-0.97839 0.89201,-1.54457l0,-6.18817c0,-0.56618 -0.40141,-1.26148 -0.89201,-1.54457zm-6.09542,11.09006c0,0 -0.06938,0.0149 -0.13876,0.0149c-0.06938,0 -0.11894,-0.00993 -0.13876,-0.0149l-5.36201,-3.10404c-0.05451,-0.04966 -0.12389,-0.17383 -0.13876,-0.24336l0,-6.20803c0.01487,-0.06953 0.0892,-0.19369 0.13876,-0.24336l5.36201,-3.10404c0,0 0.06938,-0.0149 0.13876,-0.0149c0.06938,0 0.11894,0.00993 0.13876,0.0149l5.36199,3.10404c0.05451,0.04966 0.12389,0.17383 0.13876,0.24336l0,5.50776l-4.15282,-2.40377l0,-0.65557c0,-0.12913 -0.06938,-0.24336 -0.1784,-0.30792l-1.12988,-0.65557c-0.05451,-0.0298 -0.11894,-0.04966 -0.1784,-0.04966c-0.05947,0 -0.12389,0.0149 -0.1784,0.04966l-1.12988,0.65557c-0.10902,0.06456 -0.1784,0.18376 -0.1784,0.30792l0,1.30618c0,0.12913 0.06938,0.24336 0.1784,0.30792l1.12988,0.65557c0.05451,0.0298 0.11894,0.04966 0.1784,0.04966c0.05947,0 0.12389,-0.0149 0.1784,-0.04966l0.56494,-0.32779l4.15282,2.40377l-4.7574,2.75142l0,0.00993l-0.00001,0.00001z" fill="white" id="svg_4" stroke="null"/>
  </g>
 </g>
</svg>